# xmcd CD database file
#
# Track frame offsets:
#	150
#	27914
#	49505
#	74184
#	90923
#	120468
#	136670
#	157071
#	164195
#	187593
#	208258
#	224004
#
# Disc length: 3376 seconds
#
# Revision: 1
# Processed by: cddbd v1.4PL0 Copyright (c) Steve Scherf et al.
# Submitted via: CDex 1.50
#
DISCID=ae0d2e0c
DTITLE=Pacific Moon - Celebrations of Nature
DYEAR=2003
DGENRE=New Age
TTITLE0=Mirage of the Fall - Jia Peng Fang
TTITLE1=Winter Dance - Uttara-Kuru
TTITLE2=Flowers - Kiyoshi Yoshida
TTITLE3=Legend of the Ocean - Kiyoshi Yoshida
TTITLE4=Seaside - Naoyuki Onda
TTITLE5=A Song of Birth - Eri Sugai
TTITLE6=Riverside - Jia Peng Fang
TTITLE7=Moegi (Light Green) - Mizuyo Komiya
TTITLE8=Unicorn - Shao Rong
TTITLE9=Road to OASIS - Missa Johnouchi
TTITLE10=Leaves of Autumn - Jiang Xiao-Qing
TTITLE11=Sekar - Jalan Jalan
EXTD=YEAR: 2003
EXTT0=
EXTT1=
EXTT2=
EXTT3=
EXTT4=
EXTT5=
EXTT6=
EXTT7=
EXTT8=
EXTT9=
EXTT10=
EXTT11=
PLAYORDER=
